<?xml version="1.0" encoding="UTF-8"?>
<svg xmlns="http://www.w3.org/2000/svg" xmlns:xlink="http://www.w3.org/1999/xlink" width="1148px" height="1148px" viewBox="0 0 1148 1148" version="1.1">
<defs>
<linearGradient id="linear0" gradientUnits="userSpaceOnUse" x1="17.820801" y1="48.966" x2="15.2025" y2="26.9419" gradientTransform="matrix(17.9375,0,0,17.9375,0,0)">
<stop offset="0" style="stop-color:rgb(29.803922%,81.960784%,83.137255%);stop-opacity:1;"/>
<stop offset="0.2255" style="stop-color:rgb(27.843137%,78.823529%,83.137255%);stop-opacity:1;"/>
<stop offset="0.5749" style="stop-color:rgb(22.352941%,70.196078%,83.529412%);stop-opacity:1;"/>
<stop offset="1" style="stop-color:rgb(13.72549%,56.470588%,83.921569%);stop-opacity:1;"/>
</linearGradient>
<linearGradient id="linear1" gradientUnits="userSpaceOnUse" x1="25.5881" y1="32.149601" x2="17.055201" y2="36.1408" gradientTransform="matrix(17.9375,0,0,17.9375,0,0)">
<stop offset="0" style="stop-color:rgb(11.764706%,19.607843%,42.745098%);stop-opacity:1;"/>
<stop offset="0.1305" style="stop-color:rgb(12.941176%,22.745098%,48.235294%);stop-opacity:1;"/>
<stop offset="0.3771" style="stop-color:rgb(15.686275%,31.372549%,62.745098%);stop-opacity:1;"/>
<stop offset="0.6089" style="stop-color:rgb(18.823529%,40.784314%,78.823529%);stop-opacity:1;"/>
<stop offset="1" style="stop-color:rgb(18.823529%,40.784314%,78.823529%);stop-opacity:1;"/>
</linearGradient>
<linearGradient id="linear2" gradientUnits="userSpaceOnUse" x1="49.5933" y1="37.486301" x2="43.124699" y2="31.684999" gradientTransform="matrix(17.9375,0,0,17.9375,0,0)">
<stop offset="0" style="stop-color:rgb(5.490196%,22.352941%,65.882353%);stop-opacity:1;"/>
<stop offset="0.1587" style="stop-color:rgb(6.666667%,21.960784%,61.568627%);stop-opacity:1;"/>
<stop offset="0.7049" style="stop-color:rgb(10.196078%,20.392157%,47.843137%);stop-opacity:1;"/>
<stop offset="1" style="stop-color:rgb(11.764706%,19.607843%,42.745098%);stop-opacity:1;"/>
</linearGradient>
<linearGradient id="linear3" gradientUnits="userSpaceOnUse" x1="9.846" y1="32.227699" x2="53.3246" y2="32.227699" gradientTransform="matrix(17.9375,0,0,17.9375,0,0)">
<stop offset="0.067" style="stop-color:rgb(5.490196%,22.352941%,65.882353%);stop-opacity:1;"/>
<stop offset="0.1804" style="stop-color:rgb(6.27451%,23.529412%,66.666667%);stop-opacity:1;"/>
<stop offset="0.2595" style="stop-color:rgb(9.019608%,27.058824%,69.019608%);stop-opacity:1;"/>
<stop offset="0.3281" style="stop-color:rgb(13.333333%,32.941176%,73.333333%);stop-opacity:1;"/>
<stop offset="0.3855" style="stop-color:rgb(18.823529%,40.784314%,78.823529%);stop-opacity:1;"/>
<stop offset="0.4296" style="stop-color:rgb(13.333333%,33.333333%,73.333333%);stop-opacity:1;"/>
<stop offset="0.4832" style="stop-color:rgb(9.019608%,27.058824%,69.411765%);stop-opacity:1;"/>
<stop offset="0.5448" style="stop-color:rgb(6.27451%,23.529412%,66.666667%);stop-opacity:1;"/>
<stop offset="0.6313" style="stop-color:rgb(5.490196%,22.352941%,65.882353%);stop-opacity:1;"/>
<stop offset="0.8184" style="stop-color:rgb(18.823529%,40.784314%,78.823529%);stop-opacity:1;"/>
<stop offset="1" style="stop-color:rgb(13.72549%,56.470588%,83.921569%);stop-opacity:1;"/>
</linearGradient>
<linearGradient id="linear4" gradientUnits="userSpaceOnUse" x1="31.2966" y1="30.0308" x2="53.870899" y2="30.0308" gradientTransform="matrix(17.9375,0,0,17.9375,0,0)">
<stop offset="0" style="stop-color:rgb(5.490196%,22.352941%,65.882353%);stop-opacity:1;"/>
<stop offset="0.4497" style="stop-color:rgb(18.823529%,40.784314%,78.823529%);stop-opacity:1;"/>
<stop offset="1" style="stop-color:rgb(13.72549%,56.470588%,83.921569%);stop-opacity:1;"/>
</linearGradient>
</defs>
<g id="surface1">
<path style=" stroke:none;fill-rule:nonzero;fill:rgb(11.764706%,19.607843%,42.745098%);fill-opacity:1;" d="M 326.28125 729.875 C 324.847656 726.46875 360.902344 720.011719 387.628906 685.390625 C 409.511719 657.050781 415.433594 622.609375 418.480469 603.417969 C 422.609375 578.484375 422.25 557.316406 421.171875 542.96875 C 426.734375 538.125 432.292969 533.101562 438.035156 528.257812 C 447.539062 549.246094 457.046875 571.667969 466.195312 595.523438 C 473.371094 614.359375 479.828125 632.65625 485.746094 650.414062 C 477.855469 657.769531 466.914062 667.453125 452.742188 677.5 C 392.292969 720.550781 328.078125 734.359375 326.28125 729.875 Z M 326.28125 729.875 "/>
<path style=" stroke:none;fill-rule:nonzero;fill:rgb(29.803923%,81.960785%,83.137256%);fill-opacity:1;" d="M 484.851562 475.34375 C 493.460938 463.324219 502.25 451.488281 510.859375 439.46875 C 498.125 424.042969 477.855469 402.515625 448.078125 383.503906 C 433.90625 374.355469 388.707031 347.269531 323.773438 341.890625 C 235.699219 334.535156 171.484375 372.023438 159.105469 379.558594 C 139.914062 391.21875 80 428.707031 50.226562 506.554688 C 42.152344 527.722656 22.960938 587.09375 42.152344 656.332031 C 44.84375 665.839844 57.578125 710.144531 95.964844 753.734375 C 121.257812 782.613281 148.164062 800.011719 166.101562 810.058594 C 144.578125 789.96875 104.21875 746.019531 86.457031 677.859375 C 80.179688 654 69.777344 610.773438 83.769531 558.214844 C 102.0625 489.515625 149.777344 451.488281 163.050781 441.261719 C 193.1875 417.945312 221.886719 408.257812 233.007812 405.027344 C 281.617188 390.320312 322.15625 397.136719 343.144531 401.082031 C 351.753906 402.695312 390.140625 410.230469 433.191406 436.0625 C 455.792969 449.515625 472.832031 464.042969 484.851562 475.34375 Z M 484.851562 475.34375 "/>
<path style=" stroke:none;fill-rule:nonzero;fill:url(#linear0);" d="M 485.03125 475.34375 C 465.476562 456.328125 411.84375 409.511719 329.871094 399.289062 C 306.015625 396.238281 255.25 390.679688 200.003906 417.226562 C 121.078125 455.074219 93.8125 529.515625 88.96875 543.507812 C 74.621094 585.300781 76.953125 620.277344 78.207031 637.5 C 79.464844 654.539062 87.355469 758.578125 167.894531 810.773438 C 193.90625 827.816406 218.300781 833.195312 240.183594 838.21875 C 302.785156 852.390625 353.367188 840.550781 368.972656 836.425781 C 390.320312 830.6875 407.359375 823.332031 418.660156 817.589844 C 398.570312 823.691406 359.109375 832.660156 311.214844 822.972656 C 232.46875 807.1875 187.804688 752.121094 172.378906 730.773438 C 158.566406 711.761719 130.585938 673.195312 131.125 617.050781 C 131.839844 553.550781 168.792969 511.21875 179.554688 499.738281 C 190.855469 487.71875 218.65625 461.351562 263.679688 449.515625 C 275.519531 446.464844 313.726562 437.675781 359.46875 451.308594 C 416.328125 468.167969 447.359375 508.167969 457.046875 521.800781 C 466.375 506.195312 475.703125 490.769531 485.03125 475.34375 Z M 485.03125 475.34375 "/>
<path style=" stroke:none;fill-rule:nonzero;fill:url(#linear1);" d="M 457.046875 521.621094 C 446.285156 539.558594 435.523438 557.496094 424.761719 575.433594 C 423.683594 564.132812 418.480469 528.796875 389.242188 500.097656 C 385.117188 495.972656 366.285156 478.035156 335.074219 469.605469 C 327.539062 467.628906 302.785156 461.53125 271.933594 468.707031 C 238.75 476.421875 218.121094 494.535156 213.277344 499.199219 C 187.804688 522.699219 179.734375 549.964844 176.503906 561.085938 C 165.921875 598.394531 173.8125 629.605469 177.761719 644.316406 C 181.527344 658.484375 194.980469 701.175781 236.417969 734.359375 C 249.332031 744.765625 271.574219 759.472656 302.246094 767.007812 C 355.699219 780.101562 400.363281 763.597656 433.90625 750.863281 C 485.925781 731.3125 523.59375 701.355469 547.992188 677.140625 C 541.355469 695.257812 529.515625 721.445312 507.632812 748.351562 C 495.792969 763.0625 470.679688 793.195312 426.375 813.464844 C 413.816406 819.207031 369.511719 837.859375 312.113281 830.507812 C 277.3125 826.023438 252.738281 813.824219 245.742188 810.417969 C 240.183594 807.546875 213.097656 793.195312 186.730469 763.421875 C 147.085938 718.578125 137.042969 670.324219 135.070312 659.921875 C 131.125 639.113281 124.484375 601.445312 140.808594 557.855469 C 159.824219 507.8125 196.953125 482.160156 209.867188 473.730469 C 237.492188 455.253906 263.144531 449.15625 272.113281 447.359375 C 281.796875 445.386719 304.9375 441.261719 334.355469 445.566406 C 353.1875 448.257812 391.039062 456.867188 425.65625 486.824219 C 440.722656 499.199219 450.769531 512.117188 457.046875 521.621094 Z M 457.046875 521.621094 "/>
<path style=" stroke:none;fill-rule:nonzero;fill:rgb(11.764706%,19.607843%,42.745098%);fill-opacity:1;" d="M 651.488281 524.671875 C 655.617188 543.507812 662.789062 567.542969 675.886719 593.191406 C 696.511719 633.730469 722.882812 660.996094 741.535156 677.320312 C 735.078125 665.480469 702.792969 603.238281 727.722656 541.53125 C 737.589844 517.136719 752.65625 501.890625 755.886719 498.484375 C 786.917969 467.628906 825.125 462.429688 838.21875 461.351562 C 815.257812 459.199219 770.953125 457.945312 721.445312 478.75 C 689.160156 492.5625 666.019531 511.039062 651.488281 524.671875 Z M 651.488281 524.671875 "/>
<path style=" stroke:none;fill-rule:nonzero;fill:rgb(29.803923%,81.960785%,83.137256%);fill-opacity:1;" d="M 655.078125 707.453125 C 646.828125 719.472656 638.753906 731.671875 630.503906 743.6875 C 637.140625 752.65625 646.828125 764.855469 660.457031 777.589844 C 714.269531 828.355469 778.308594 842.164062 810.238281 846.113281 C 827.996094 848.265625 881.089844 853.109375 942.257812 830.328125 C 989.433594 812.75 1018.851562 787.097656 1025.308594 781.359375 C 1038.042969 769.878906 1065.488281 742.972656 1085.398438 699.742188 C 1099.75 668.351562 1104.410156 641.625 1105.847656 630.144531 C 1107.820312 616.152344 1112.125 575.433594 1097.773438 527.363281 C 1076.070312 454.535156 1025.84375 412.203125 1007.011719 398.03125 C 921.449219 333.277344 824.40625 345.65625 804.855469 348.703125 C 825.484375 348.703125 867.816406 351.574219 909.96875 378.300781 C 942.078125 398.570312 958.9375 423.503906 972.210938 442.875 C 1012.75 501.890625 1022.078125 566.109375 1024.589844 596.601562 C 1033.378906 574.359375 1041.988281 551.9375 1050.777344 529.695312 C 1054.90625 543.507812 1059.390625 563.058594 1060.824219 586.734375 C 1062.257812 607.542969 1064.230469 643.957031 1048.804688 684.316406 C 1026.023438 743.867188 979.925781 774.542969 966.472656 783.332031 C 919.476562 813.644531 874.453125 816.875 856.695312 817.769531 C 835.886719 819.027344 790.328125 821 741.175781 794.988281 C 688.800781 767.007812 663.867188 724.316406 655.078125 707.453125 Z M 655.078125 707.453125 "/>
<path style=" stroke:none;fill-rule:nonzero;fill:rgb(13.725491%,56.470591%,83.92157%);fill-opacity:1;" d="M 655.078125 707.453125 C 665.660156 690.414062 676.0625 673.375 686.648438 656.332031 C 691.671875 668.351562 699.921875 684.855469 713.554688 702.074219 C 722.164062 712.835938 740.460938 735.617188 772.03125 751.761719 C 822.792969 777.589844 871.761719 768.082031 885.574219 765.214844 C 905.664062 760.910156 935.621094 754.628906 959.476562 728.261719 C 964.859375 722.34375 980.824219 703.148438 985.664062 674.449219 C 988.175781 659.742188 986.023438 647.363281 981.71875 622.789062 C 975.980469 589.964844 967.191406 563.953125 960.734375 547.09375 C 956.070312 535.074219 947.996094 516.0625 935.621094 493.820312 C 908.894531 445.925781 895.441406 421.890625 868.890625 407.898438 C 841.808594 393.546875 802.523438 388.707031 792.835938 387.628906 C 792.835938 387.628906 786.917969 386.910156 781.535156 386.554688 C 726.46875 382.25 684.496094 401.800781 666.917969 411.484375 C 680.371094 398.210938 699.203125 382.964844 724.316406 370.589844 C 762.164062 351.753906 795.167969 348.882812 802.882812 348.347656 C 809.339844 347.988281 834.453125 346.550781 866.023438 354.445312 C 877.144531 357.136719 898.847656 362.695312 922.527344 377.226562 C 959.476562 400.007812 978.132812 430.859375 987.101562 445.746094 C 1008.085938 481.261719 1013.648438 514.089844 1019.386719 546.554688 C 1022.796875 565.929688 1024.050781 582.25 1024.769531 593.550781 C 1033.558594 571.488281 1042.167969 549.425781 1050.957031 527.363281 C 1054.546875 538.304688 1059.210938 554.269531 1061.71875 574 C 1064.050781 592.296875 1068.894531 634.269531 1050.242188 682.878906 C 1037.863281 715.167969 1020.105469 737.589844 1008.625 750.144531 C 1000.015625 759.472656 979.566406 780.101562 946.742188 796.425781 C 938.488281 800.550781 896.15625 821 837.144531 819.207031 C 819.5625 818.667969 786.199219 817.410156 749.070312 799.652344 C 692.746094 772.566406 664.941406 726.289062 655.078125 707.453125 Z M 655.078125 707.453125 "/>
<path style=" stroke:none;fill-rule:nonzero;fill:url(#linear2);" d="M 680.90625 665.300781 C 693.285156 640.726562 705.660156 616.332031 718.039062 591.757812 C 718.039062 603.957031 719.652344 624.941406 730.054688 648.261719 C 734.183594 657.410156 743.507812 677.679688 764.496094 695.257812 C 770.773438 700.460938 798.757812 722.882812 839.476562 723.417969 C 888.085938 724.136719 933.46875 693.285156 954.453125 650.234375 C 980.464844 596.601562 958.402344 544.941406 954.8125 537.046875 C 995.710938 592.65625 1005.398438 659.921875 977.59375 707.632812 C 959.65625 738.667969 930.417969 754.09375 921.089844 758.757812 C 871.046875 784.046875 822.253906 772.03125 808.441406 768.441406 C 770.058594 758.398438 745.660156 737.050781 729.160156 722.703125 C 705.660156 702.074219 690.234375 680.371094 680.90625 665.300781 Z M 680.90625 665.300781 "/>
<path style=" stroke:none;fill-rule:nonzero;fill:url(#linear3);" d="M 176.683594 640.1875 C 181.707031 652.566406 191.574219 671.9375 210.226562 689.160156 C 244.667969 720.90625 286.101562 724.496094 301.53125 726.109375 C 405.925781 737.410156 496.511719 637.679688 505.121094 627.992188 C 540.636719 579.023438 565.75 541.710938 582.429688 515.703125 C 582.429688 515.703125 592.65625 499.917969 610.59375 474.804688 C 630.144531 447.539062 642.878906 427.449219 664.40625 411.664062 C 683.957031 397.316406 702.433594 391.933594 716.421875 387.988281 C 734.003906 382.964844 789.609375 367.71875 847.726562 394.625 C 870.148438 405.027344 884.320312 417.765625 892.929688 425.476562 C 933.46875 462.070312 949.789062 505.480469 956.605469 528.976562 C 932.210938 495.433594 911.761719 471.578125 901.539062 464.042969 C 899.386719 462.429688 897.234375 460.992188 897.234375 460.992188 C 892.03125 457.40625 883.0625 451.488281 871.402344 445.925781 C 857.414062 439.289062 829.25 426.015625 790.863281 424.402344 C 775.617188 423.683594 734.898438 422.609375 692.027344 446.644531 C 681.625 452.5625 643.777344 475.164062 621.535156 518.574219 C 609.15625 542.789062 606.644531 575.078125 585.839844 612.027344 C 585.300781 613.105469 582.96875 617.050781 578.484375 624.941406 C 559.292969 658.664062 553.371094 668.53125 548.171875 677.140625 C 539.203125 691.847656 530.949219 703.507812 528.078125 707.453125 C 497.585938 748.890625 432.832031 772.03125 378.300781 775.976562 C 357.671875 777.410156 324.667969 779.382812 286.28125 764.496094 C 272.113281 758.9375 223.679688 739.5625 194.621094 688.082031 C 184.039062 669.605469 179.195312 652.207031 176.683594 640.1875 Z M 176.683594 640.1875 "/>
<path style=" stroke:none;fill-rule:nonzero;fill:url(#linear4);" d="M 561.445312 653.640625 C 578.125 620.457031 596.0625 594.628906 610.773438 576.332031 C 623.148438 560.726562 641.984375 537.40625 672.65625 513.371094 C 688.441406 500.996094 704.585938 488.4375 729.519531 478.035156 C 761.625 464.761719 788.710938 463.144531 806.648438 462.429688 C 839.832031 460.8125 873.734375 459.199219 905.125 479.46875 C 924.320312 491.847656 937.414062 508.886719 939.566406 511.757812 C 948.894531 524.132812 954.09375 535.433594 956.605469 541.355469 C 963.242188 557.140625 965.574219 571.488281 966.472656 581.175781 C 966.292969 565.929688 963.601562 531.847656 940.640625 499.199219 C 922.527344 473.191406 900.460938 460.636719 884.140625 451.488281 C 869.789062 443.414062 829.96875 421.53125 774.542969 423.863281 C 759.832031 424.582031 716.066406 426.914062 673.734375 456.867188 C 648.441406 474.804688 634.988281 494.535156 619.921875 517.136719 C 601.804688 544.582031 576.691406 589.785156 561.445312 653.640625 Z M 561.445312 653.640625 "/>
</g>
</svg>
